<svg width="58" height="58" viewBox="0 0 58 58" fill="none" xmlns="http://www.w3.org/2000/svg">
<rect x="4" y="4" width="49.7571" height="49.7571" rx="24.8785" fill="#E3B873" stroke="white" stroke-width="8"/>
<path d="M23.4708 34.7517C22.4988 34.7517 21.6168 34.4937 20.8248 33.9777C20.0328 33.4617 19.4028 32.7117 18.9348 31.7277C18.4788 30.7317 18.2508 29.5497 18.2508 28.1817C18.2508 26.8137 18.4788 25.6377 18.9348 24.6537C19.4028 23.6577 20.0328 22.9017 20.8248 22.3857C21.6168 21.8697 22.4988 21.6117 23.4708 21.6117C24.4428 21.6117 25.3248 21.8697 26.1168 22.3857C26.9088 22.9017 27.5328 23.6577 27.9888 24.6537C28.4568 25.6377 28.6908 26.8137 28.6908 28.1817C28.6908 29.5497 28.4568 30.7317 27.9888 31.7277C27.5328 32.7117 26.9088 33.4617 26.1168 33.9777C25.3248 34.4937 24.4428 34.7517 23.4708 34.7517ZM23.4708 34.3917C24.8508 34.3917 25.5408 32.3217 25.5408 28.1817C25.5408 24.0417 24.8508 21.9717 23.4708 21.9717C22.0908 21.9717 21.4008 24.0417 21.4008 28.1817C21.4008 32.3217 22.0908 34.3917 23.4708 34.3917ZM30.0394 33.6717C30.0394 32.9637 30.1774 32.3217 30.4534 31.7457C30.7414 31.1577 31.0894 30.6477 31.4974 30.2157C31.9054 29.7837 32.4394 29.2737 33.0994 28.6857C33.7114 28.1457 34.1914 27.6957 34.5394 27.3357C34.8874 26.9637 35.1814 26.5497 35.4214 26.0937C35.6614 25.6257 35.7814 25.1217 35.7814 24.5817C35.7814 23.7897 35.5894 23.1717 35.2054 22.7277C34.8214 22.2837 34.3234 22.0617 33.7114 22.0617C33.3634 22.0617 33.0094 22.1097 32.6494 22.2057L32.2714 22.3317V25.2117L32.0374 25.2657C31.8454 25.2897 31.6834 25.3017 31.5514 25.3017C31.1434 25.3017 30.8134 25.1817 30.5614 24.9417C30.3214 24.6897 30.2014 24.3597 30.2014 23.9517C30.2014 23.5677 30.3454 23.1957 30.6334 22.8357C30.9334 22.4757 31.3714 22.1817 31.9474 21.9537C32.5354 21.7257 33.2434 21.6117 34.0714 21.6117C35.6914 21.6117 36.8914 21.9357 37.6714 22.5837C38.4514 23.2317 38.8414 24.1377 38.8414 25.3017C38.8414 26.0337 38.6494 26.6637 38.2654 27.1917C37.8934 27.7197 37.4314 28.1577 36.8794 28.5057C36.3394 28.8537 35.6134 29.2497 34.7014 29.6937C33.9334 30.0657 33.3094 30.3957 32.8294 30.6837C32.3614 30.9597 31.9234 31.2957 31.5154 31.6917C31.1194 32.0877 30.8374 32.5377 30.6694 33.0417H37.3294C37.4134 32.3937 37.6174 31.8537 37.9414 31.4217C38.0734 31.2177 38.2294 31.0377 38.4094 30.8817H38.9494V34.4817H30.0394V33.6717Z" fill="white"/>
</svg>
