<svg width="58" height="58" viewBox="0 0 58 58" fill="none" xmlns="http://www.w3.org/2000/svg">
<rect x="4" y="4.21631" width="49.7571" height="49.7571" rx="24.8785" fill="#E3B873" stroke="white" stroke-width="8"/>
<path d="M25.5727 35.27C24.6007 35.27 23.7187 35.012 22.9267 34.496C22.1347 33.98 21.5047 33.23 21.0367 32.246C20.5807 31.25 20.3527 30.068 20.3527 28.7C20.3527 27.332 20.5807 26.156 21.0367 25.172C21.5047 24.176 22.1347 23.42 22.9267 22.904C23.7187 22.388 24.6007 22.13 25.5727 22.13C26.5447 22.13 27.4267 22.388 28.2187 22.904C29.0107 23.42 29.6347 24.176 30.0907 25.172C30.5587 26.156 30.7927 27.332 30.7927 28.7C30.7927 30.068 30.5587 31.25 30.0907 32.246C29.6347 33.23 29.0107 33.98 28.2187 34.496C27.4267 35.012 26.5447 35.27 25.5727 35.27ZM25.5727 34.91C26.9527 34.91 27.6427 32.84 27.6427 28.7C27.6427 24.56 26.9527 22.49 25.5727 22.49C24.1927 22.49 23.5027 24.56 23.5027 28.7C23.5027 32.84 24.1927 34.91 25.5727 34.91ZM32.8613 35V34.73L34.1213 34.37V24.488L32.2313 25.82L31.8713 25.37L35.1473 22.4H37.0913V34.37L38.3513 34.73V35H32.8613Z" fill="white"/>
</svg>
