<svg width="58" height="58" viewBox="0 0 58 58" fill="none" xmlns="http://www.w3.org/2000/svg">
<rect x="4" y="4" width="49.7571" height="49.7571" rx="24.8785" fill="#E3B873" stroke="white" stroke-width="8"/>
<path d="M23.2361 34.1323C22.2641 34.1323 21.3821 33.8743 20.5901 33.3583C19.7981 32.8423 19.1681 32.0923 18.7001 31.1083C18.2441 30.1123 18.0161 28.9303 18.0161 27.5623C18.0161 26.1943 18.2441 25.0183 18.7001 24.0343C19.1681 23.0383 19.7981 22.2823 20.5901 21.7663C21.3821 21.2503 22.2641 20.9923 23.2361 20.9923C24.2081 20.9923 25.0901 21.2503 25.8821 21.7663C26.6741 22.2823 27.2981 23.0383 27.7541 24.0343C28.2221 25.0183 28.4561 26.1943 28.4561 27.5623C28.4561 28.9303 28.2221 30.1123 27.7541 31.1083C27.2981 32.0923 26.6741 32.8423 25.8821 33.3583C25.0901 33.8743 24.2081 34.1323 23.2361 34.1323ZM23.2361 33.7723C24.6161 33.7723 25.3061 31.7023 25.3061 27.5623C25.3061 23.4223 24.6161 21.3523 23.2361 21.3523C21.8561 21.3523 21.1661 23.4223 21.1661 27.5623C21.1661 31.7023 21.8561 33.7723 23.2361 33.7723ZM33.5846 34.1323C32.7566 34.1323 32.0486 34.0183 31.4606 33.7903C30.8846 33.5623 30.4466 33.2683 30.1466 32.9083C29.8586 32.5483 29.7146 32.1763 29.7146 31.7923C29.7146 31.3843 29.8346 31.0603 30.0746 30.8203C30.3266 30.5683 30.6566 30.4423 31.0646 30.4423C31.1606 30.4423 31.2566 30.4543 31.3526 30.4783C31.4486 30.4903 31.5146 30.4963 31.5506 30.4963L31.7846 30.5323V33.4123C31.7966 33.4123 31.9226 33.4603 32.1626 33.5563C32.4746 33.6403 32.8286 33.6823 33.2246 33.6823C34.0646 33.6823 34.7066 33.4303 35.1506 32.9263C35.6066 32.4103 35.8346 31.6423 35.8346 30.6223C35.8346 29.5783 35.6126 28.7923 35.1686 28.2643C34.7366 27.7363 34.1486 27.4723 33.4046 27.4723H32.5046V27.0223H33.4046C33.9446 27.0223 34.3946 26.7823 34.7546 26.3023C35.1146 25.8223 35.2946 25.1323 35.2946 24.2323C35.2946 23.3323 35.1086 22.6423 34.7366 22.1623C34.3646 21.6823 33.8906 21.4423 33.3146 21.4423C33.0026 21.4423 32.7026 21.4903 32.4146 21.5863C32.3786 21.5983 32.2586 21.6403 32.0546 21.7123V24.5923L31.8206 24.6463C31.6286 24.6703 31.4666 24.6823 31.3346 24.6823C30.9266 24.6823 30.5966 24.5623 30.3446 24.3223C30.1046 24.0703 29.9846 23.7403 29.9846 23.3323C29.9846 22.9603 30.1286 22.5943 30.4166 22.2343C30.7046 21.8743 31.1246 21.5803 31.6766 21.3523C32.2406 21.1123 32.9066 20.9923 33.6746 20.9923C34.6826 20.9923 35.5346 21.1423 36.2306 21.4423C36.9386 21.7303 37.4666 22.1203 37.8146 22.6123C38.1746 23.1043 38.3546 23.6443 38.3546 24.2323C38.3546 24.9163 38.1806 25.4623 37.8326 25.8703C37.4846 26.2663 37.0286 26.5843 36.4646 26.8243C35.9126 27.0403 35.2826 27.1663 34.5746 27.2023V27.2923C35.3666 27.3283 36.0866 27.4663 36.7346 27.7063C38.1746 28.2823 38.8946 29.2543 38.8946 30.6223C38.8946 31.6783 38.4566 32.5303 37.5806 33.1783C36.7166 33.8143 35.3846 34.1323 33.5846 34.1323Z" fill="white"/>
</svg>
