<svg width="58" height="58" viewBox="0 0 58 58" fill="none" xmlns="http://www.w3.org/2000/svg">
<rect x="4" y="4" width="49.7571" height="49.7571" rx="24.8785" fill="#E3B873" stroke="white" stroke-width="8"/>
<path d="M23.1042 35.1323C22.1322 35.1323 21.2502 34.8743 20.4582 34.3583C19.6662 33.8423 19.0362 33.0923 18.5682 32.1083C18.1122 31.1123 17.8842 29.9303 17.8842 28.5623C17.8842 27.1943 18.1122 26.0183 18.5682 25.0343C19.0362 24.0383 19.6662 23.2823 20.4582 22.7663C21.2502 22.2503 22.1322 21.9923 23.1042 21.9923C24.0762 21.9923 24.9582 22.2503 25.7502 22.7663C26.5422 23.2823 27.1662 24.0383 27.6222 25.0343C28.0902 26.0183 28.3242 27.1943 28.3242 28.5623C28.3242 29.9303 28.0902 31.1123 27.6222 32.1083C27.1662 33.0923 26.5422 33.8423 25.7502 34.3583C24.9582 34.8743 24.0762 35.1323 23.1042 35.1323ZM23.1042 34.7723C24.4842 34.7723 25.1742 32.7023 25.1742 28.5623C25.1742 24.4223 24.4842 22.3523 23.1042 22.3523C21.7242 22.3523 21.0342 24.4223 21.0342 28.5623C21.0342 32.7023 21.7242 34.7723 23.1042 34.7723ZM33.3628 34.8623V34.5923L34.6228 34.2323V31.5323H29.4928L29.1328 30.9923L35.8828 22.0823H37.5928V30.7223H39.4828V31.5323H37.5928V34.2323L38.8528 34.5923V34.8623H33.3628ZM30.1228 30.7223H34.6228V24.7823L30.1228 30.7223Z" fill="white"/>
</svg>
